<svg xmlns="http://www.w3.org/2000/svg" xmlns:xlink="http://www.w3.org/1999/xlink" width="230" height="202.5" viewBox="0 0 230 202.5"><defs><style>.a,.h{fill:#fff;}.a{stroke:#707070;}.b{fill:#f8fafd;}.c{fill:#dfe2e9;}.d{fill:#ff6464;}.e{fill:#ffe182;}.f{fill:#a5d76e;}.g{fill:#f5f8ff;}.i{fill:#e6e9ef;}.as,.j,.k{fill:#a7adb7;}.k{opacity:0.28;}.l{fill:#f90;}.l,.m{fill-rule:evenodd;}.n{clip-path:url(#i);}.an,.o{fill:#333e48;}.o{opacity:0.26;}.p{fill:rgba(0,0,0,0.04);}.q{fill:#ffb8c3;}.r{fill:#cec5ff;}.s{fill:#ffdfc4;}.t{fill:#9ea3ab;}.u{fill:#4a4a53;}.v{fill:#b5b5bb;}.w{opacity:0.2;}.x{fill:#5c6066;}.y{fill:#e5e3e4;}.z{fill:#616366;}.aa,.al{fill:none;}.aa{stroke:#d82a19;stroke-miterlimit:10;stroke-width:0.249px;}.ab{fill:#a4a6a9;}.ac{fill:#b8bac1;}.ad{fill:#331b11;}.ae{fill:#33333a;}.af{fill:#e1e1e1;}.ag{fill:#4a4a4a;}.ah,.ak{fill:#e8a556;}.ai{fill:#ffcf54;}.aj{fill:#ffe68f;}.ak{font-size:9px;font-family:AllerDisplay-Regular, Aller Display;}.al{stroke:#4a4a53;stroke-linecap:round;stroke-width:0.5px;}.am,.ar{fill:#20a8d8;}.am{font-size:18px;font-family:Roboto-Bold, Roboto;font-weight:700;}.ao{fill:url(#t);}.ap{fill:#8fd3eb;}.aq{fill:#666;}.as{opacity:0.65;}.at{filter:url(#r);}.au{filter:url(#p);}.av{filter:url(#n);}.aw{filter:url(#l);}.ax{filter:url(#j);}.ay{filter:url(#g);}.az{filter:url(#e);}.ba{filter:url(#c);}.bb{filter:url(#a);}</style><filter id="a" x="11.495" y="59.343" width="56.687" height="80.443" filterUnits="userSpaceOnUse"><feOffset dy="1" input="SourceAlpha"/><feGaussianBlur stdDeviation="2.5" result="b"/><feFlood flood-opacity="0.102"/><feComposite operator="in" in2="b"/><feComposite in="SourceGraphic"/></filter><filter id="c" x="61.387" y="59.343" width="56.687" height="80.443" filterUnits="userSpaceOnUse"><feOffset dy="1" input="SourceAlpha"/><feGaussianBlur stdDeviation="2.5" result="d"/><feFlood flood-opacity="0.102"/><feComposite operator="in" in2="d"/><feComposite in="SourceGraphic"/></filter><filter id="e" x="111.279" y="59.343" width="56.687" height="80.443" filterUnits="userSpaceOnUse"><feOffset dy="1" input="SourceAlpha"/><feGaussianBlur stdDeviation="2.5" result="f"/><feFlood flood-opacity="0.102"/><feComposite operator="in" in2="f"/><feComposite in="SourceGraphic"/></filter><filter id="g" x="161.171" y="59.343" width="56.687" height="80.443" filterUnits="userSpaceOnUse"><feOffset dy="1" input="SourceAlpha"/><feGaussianBlur stdDeviation="2.5" result="h"/><feFlood flood-opacity="0.102"/><feComposite operator="in" in2="h"/><feComposite in="SourceGraphic"/></filter><clipPath id="i"><rect class="a" width="200" height="116" transform="translate(14 63)"/></clipPath><filter id="j" x="11.495" y="133.343" width="56.687" height="80.443" filterUnits="userSpaceOnUse"><feOffset dy="1" input="SourceAlpha"/><feGaussianBlur stdDeviation="2.5" result="k"/><feFlood flood-opacity="0.102"/><feComposite operator="in" in2="k"/><feComposite in="SourceGraphic"/></filter><filter id="l" x="61.387" y="133.343" width="56.687" height="80.443" filterUnits="userSpaceOnUse"><feOffset dy="1" input="SourceAlpha"/><feGaussianBlur stdDeviation="2.5" result="m"/><feFlood flood-opacity="0.102"/><feComposite operator="in" in2="m"/><feComposite in="SourceGraphic"/></filter><filter id="n" x="111.279" y="133.343" width="56.687" height="80.443" filterUnits="userSpaceOnUse"><feOffset dy="1" input="SourceAlpha"/><feGaussianBlur stdDeviation="2.5" result="o"/><feFlood flood-opacity="0.102"/><feComposite operator="in" in2="o"/><feComposite in="SourceGraphic"/></filter><filter id="p" x="161.171" y="133.343" width="56.687" height="80.443" filterUnits="userSpaceOnUse"><feOffset dy="1" input="SourceAlpha"/><feGaussianBlur stdDeviation="2.5" result="q"/><feFlood flood-opacity="0.102"/><feComposite operator="in" in2="q"/><feComposite in="SourceGraphic"/></filter><filter id="r" x="44.5" y="46.5" width="142" height="156" filterUnits="userSpaceOnUse"><feOffset dy="2" input="SourceAlpha"/><feGaussianBlur stdDeviation="2.5" result="s"/><feFlood flood-opacity="0.239"/><feComposite operator="in" in2="s"/><feComposite in="SourceGraphic"/></filter><linearGradient id="t" x1="-8.855" y1="13.906" x2="-8.855" y2="13.895" gradientUnits="objectBoundingBox"><stop offset="0" stop-color="#54bce1"/><stop offset="1" stop-color="#20a8d8"/></linearGradient></defs><g transform="translate(-1385 -1104)"><g transform="translate(1106 40)"><g transform="translate(279 1064)"><path class="b" d="M3,0H230.255V170.862H3Z" transform="translate(-0.7 15.138)"/><path class="c" d="M218.1,52.966H11.9A12.006,12.006,0,0,0,0,65.078v161.5a12.006,12.006,0,0,0,11.9,12.113H218.1A12.006,12.006,0,0,0,230,226.576V65.078A12.006,12.006,0,0,0,218.1,52.966Zm5.248,174.9a4,4,0,0,1-3.966,4.038H10.615a4,4,0,0,1-3.966-4.038V79.934A4,4,0,0,1,10.615,75.9h208.77a4,4,0,0,1,3.966,4.038Z" transform="translate(0 -52.966)"/><circle class="d" cx="4.022" cy="4.022" r="4.022" transform="translate(8.043 8.042)"/><circle class="e" cx="4.022" cy="4.022" r="4.022" transform="translate(20.107 8.042)"/><circle class="f" cx="4.022" cy="4.022" r="4.022" transform="translate(32.171 8.042)"/><g transform="translate(45.017 8.042)"><path class="g" d="M113.973,78.663h-4.022a4.022,4.022,0,0,1-4.022-4.021h0a4.022,4.022,0,0,1,4.022-4.022h4.022a4.022,4.022,0,0,1,4.022,4.022h0A4.022,4.022,0,0,1,113.973,78.663Z" transform="translate(-105.93 -70.62)"/><path class="g" d="M149.284,78.663h-4.022a4.022,4.022,0,0,1-4.022-4.021h0a4.022,4.022,0,0,1,4.022-4.022h4.022a4.022,4.022,0,0,1,4.022,4.022h0A4.022,4.022,0,0,1,149.284,78.663Z" transform="translate(-125.155 -70.62)"/><path class="g" d="M440.594,78.663h-4.021a4.022,4.022,0,0,1-4.022-4.021h0a4.022,4.022,0,0,1,4.022-4.022h4.021a4.022,4.022,0,0,1,4.022,4.022h0A4.022,4.022,0,0,1,440.594,78.663Z" transform="translate(-283.76 -70.62)"/><path class="g" d="M475.9,78.663h-4.022a4.022,4.022,0,0,1-4.022-4.021h0a4.022,4.022,0,0,1,4.022-4.022H475.9a4.022,4.022,0,0,1,4.022,4.022h0A4.022,4.022,0,0,1,475.9,78.663Z" transform="translate(-302.985 -70.62)"/><path class="g" d="M285.913,78.663H189.4a4.022,4.022,0,0,1-4.022-4.021h0A4.022,4.022,0,0,1,189.4,70.62h96.513a4.022,4.022,0,0,1,4.021,4.022h0A4.022,4.022,0,0,1,285.913,78.663Z" transform="translate(-149.186 -70.62)"/></g><g transform="translate(18.995 65.843)"><g class="bb" transform="matrix(1, 0, 0, 1, -18.99, -65.84)"><rect class="h" width="41.687" height="65.444" rx="1" transform="translate(18.99 65.84)"/></g><rect class="i" width="33.92" height="29.427" transform="translate(3.881 5.437)"/><path class="h" d="M21.376,21H0V39.573H21.376ZM4.127,23.551a1.815,1.815,0,0,1,0,3.623,1.815,1.815,0,0,1,0-3.623ZM14,36.146H2.577l5.711-9.373,3.841,6.3,2.4-3.939L18.8,36.146Z" transform="translate(10.203 -10.561)"/><rect class="j" width="19.713" height="3" rx="1.5" transform="translate(4.006 39.088)"/><rect class="k" width="33.795" height="3" rx="1.5" transform="translate(4.006 43.371)"/><rect class="k" width="33.795" height="3" rx="1.5" transform="translate(4.006 47.371)"/><g transform="translate(49.892)"><g class="ba" transform="matrix(1, 0, 0, 1, -68.89, -65.84)"><rect class="h" width="41.687" height="65.444" rx="1" transform="translate(68.89 65.84)"/></g><rect class="i" width="33.92" height="29.427" transform="translate(3.881 5.437)"/><path class="h" d="M21.376,21H0V39.573H21.376ZM4.127,23.551a1.815,1.815,0,0,1,0,3.623,1.815,1.815,0,0,1,0-3.623ZM14,36.146H2.577l5.711-9.373,3.841,6.3,2.4-3.939L18.8,36.146Z" transform="translate(10.203 -10.561)"/><rect class="j" width="19.713" height="3" rx="1.5" transform="translate(4.006 39.088)"/><rect class="k" width="33.795" height="3" rx="1.5" transform="translate(4.006 43.371)"/><rect class="k" width="33.795" height="3" rx="1.5" transform="translate(4.006 47.371)"/></g><g transform="translate(99.784)"><g class="az" transform="matrix(1, 0, 0, 1, -118.78, -65.84)"><rect class="h" width="41.687" height="65.444" rx="1" transform="translate(118.78 65.84)"/></g><rect class="i" width="33.92" height="29.427" transform="translate(3.881 5.437)"/><path class="h" d="M21.376,21H0V39.573H21.376ZM4.127,23.551a1.815,1.815,0,0,1,0,3.623,1.815,1.815,0,0,1,0-3.623ZM14,36.146H2.577l5.711-9.373,3.841,6.3,2.4-3.939L18.8,36.146Z" transform="translate(10.203 -10.561)"/><rect class="j" width="19.713" height="3" rx="1.5" transform="translate(4.006 39.088)"/><rect class="k" width="33.795" height="3" rx="1.5" transform="translate(4.006 43.371)"/><rect class="k" width="33.795" height="3" rx="1.5" transform="translate(4.006 47.371)"/></g><g transform="translate(149.676)"><g class="ay" transform="matrix(1, 0, 0, 1, -168.67, -65.84)"><rect class="h" width="41.687" height="65.444" rx="1" transform="translate(168.67 65.84)"/></g><rect class="i" width="33.92" height="29.427" transform="translate(3.881 5.437)"/><path class="h" d="M21.376,21H0V39.573H21.376ZM4.127,23.551a1.815,1.815,0,0,1,0,3.623,1.815,1.815,0,0,1,0-3.623ZM14,36.146H2.577l5.711-9.373,3.841,6.3,2.4-3.939L18.8,36.146Z" transform="translate(10.203 -10.561)"/><rect class="j" width="19.713" height="3" rx="1.5" transform="translate(4.006 39.088)"/><rect class="k" width="33.795" height="3" rx="1.5" transform="translate(4.006 43.371)"/><rect class="k" width="33.795" height="3" rx="1.5" transform="translate(4.006 47.371)"/></g></g><g transform="translate(19 35.033)"><path class="l" d="M168.668,194.8a22.218,22.218,0,0,1-12.531,3.831,22.676,22.676,0,0,1-15.308-5.842c-.317-.287-.033-.678.348-.454a30.811,30.811,0,0,0,15.316,4.062,30.456,30.456,0,0,0,11.683-2.389c.574-.244,1.054.376.493.792" transform="translate(-132.486 -181.054)"/><path class="l" d="M576.129,183.344c-.432-.553-2.864-.261-3.955-.132-.332.041-.383-.249-.084-.457,1.937-1.363,5.115-.97,5.486-.513s-.1,3.646-1.917,5.166c-.279.234-.546.109-.422-.2.409-1.021,1.325-3.308.891-3.864" transform="translate(-538.538 -171.211)"/><path class="m" d="M572.574,6.1V4.775a.327.327,0,0,1,.335-.335h5.933a.33.33,0,0,1,.343.335V5.91a1.866,1.866,0,0,1-.447.833l-3.074,4.389a6.551,6.551,0,0,1,3.384.726.6.6,0,0,1,.315.515v1.414c0,.193-.213.419-.437.3a6.834,6.834,0,0,0-6.268.01c-.206.112-.421-.112-.421-.3V12.452a1.6,1.6,0,0,1,.218-.911l3.562-5.108h-3.1a.328.328,0,0,1-.343-.333" transform="translate(-538.863 -4.181)"/><path class="m" d="M172.589,11.623h-1.805a.341.341,0,0,1-.322-.307V2.052a.339.339,0,0,1,.348-.333h1.683a.34.34,0,0,1,.328.31V3.24h.033a2.48,2.48,0,0,1,4.719,0,2.666,2.666,0,0,1,4.582-.7,4.93,4.93,0,0,1,.454,2.9l0,5.847a.341.341,0,0,1-.348.335h-1.8a.343.343,0,0,1-.325-.335V6.378a11.6,11.6,0,0,0-.051-1.736.94.94,0,0,0-1.061-.8,1.2,1.2,0,0,0-1.079.759,5.608,5.608,0,0,0-.168,1.775v4.91a.341.341,0,0,1-.348.335h-1.8a.341.341,0,0,1-.325-.335l0-4.91c0-1.033.17-2.554-1.112-2.554-1.3,0-1.247,1.483-1.247,2.554v4.91a.341.341,0,0,1-.348.335" transform="translate(-160.52 -1.435)"/><path class="m" d="M713.373,1.524c2.678,0,4.128,2.3,4.128,5.225,0,2.826-1.6,5.067-4.128,5.067-2.63,0-4.062-2.3-4.062-5.166,0-2.884,1.45-5.126,4.062-5.126m.015,1.891c-1.33,0-1.414,1.813-1.414,2.942s-.018,3.549,1.4,3.549c1.4,0,1.465-1.95,1.465-3.138a8.561,8.561,0,0,0-.269-2.457,1.129,1.129,0,0,0-1.18-.9" transform="translate(-667.943 -1.435)"/><path class="m" d="M874.976,11.623h-1.8a.343.343,0,0,1-.325-.335l0-9.266a.341.341,0,0,1,.348-.3h1.673a.346.346,0,0,1,.323.259V3.395h.033a2.455,2.455,0,0,1,2.46-1.871,2.368,2.368,0,0,1,2.107,1.092,5.887,5.887,0,0,1,.472,2.884v5.831a.347.347,0,0,1-.348.292h-1.81a.342.342,0,0,1-.32-.292V6.3c0-1.013.117-2.5-1.13-2.5a1.18,1.18,0,0,0-1.044.741,4.1,4.1,0,0,0-.287,1.754v4.989a.347.347,0,0,1-.353.335" transform="translate(-821.945 -1.435)"/><path class="m" d="M411.056,5.763a3.531,3.531,0,0,1-.338,1.914,1.467,1.467,0,0,1-1.249.82c-.693,0-1.1-.528-1.1-1.307,0-1.538,1.379-1.818,2.686-1.818v.391m1.82,4.4a.377.377,0,0,1-.427.043A4.4,4.4,0,0,1,411.414,9a3.574,3.574,0,0,1-2.975,1.313,2.56,2.56,0,0,1-2.7-2.813,3.063,3.063,0,0,1,1.924-2.95,12.508,12.508,0,0,1,3.394-.627V3.692a2.3,2.3,0,0,0-.221-1.307,1.2,1.2,0,0,0-1.013-.47A1.373,1.373,0,0,0,408.372,3a.378.378,0,0,1-.315.33l-1.749-.188a.318.318,0,0,1-.269-.378C406.44.64,408.36,0,410.076,0a4.093,4.093,0,0,1,2.719.9c.878.82.795,1.914.795,3.1V6.817a2.468,2.468,0,0,0,.68,1.673.341.341,0,0,1-.008.48c-.368.307-1.023.878-1.384,1.2l0-.005" transform="translate(-382.074)"/><path class="m" d="M5.319,5.763a3.531,3.531,0,0,1-.338,1.914,1.464,1.464,0,0,1-1.249.82c-.693,0-1.1-.528-1.1-1.307,0-1.538,1.379-1.818,2.683-1.818v.391m1.82,4.4a.377.377,0,0,1-.427.043A4.444,4.444,0,0,1,5.677,9,3.571,3.571,0,0,1,2.7,10.315,2.562,2.562,0,0,1,0,7.5a3.067,3.067,0,0,1,1.924-2.95,12.507,12.507,0,0,1,3.394-.627V3.691A2.322,2.322,0,0,0,5.1,2.384a1.208,1.208,0,0,0-1.013-.47A1.376,1.376,0,0,0,2.635,3a.378.378,0,0,1-.312.33L.571,3.141A.32.32,0,0,1,.3,2.762C.706.64,2.622,0,4.339,0A4.092,4.092,0,0,1,7.058.9c.878.82.795,1.914.795,3.1V6.817a2.469,2.469,0,0,0,.68,1.673.339.339,0,0,1-.005.48c-.368.307-1.023.878-1.384,1.2l-.005-.005" transform="translate(0)"/></g><g class="n"><g transform="translate(18.995 139.843)"><g class="ax" transform="matrix(1, 0, 0, 1, -18.99, -139.84)"><rect class="h" width="41.687" height="65.444" rx="1" transform="translate(18.99 139.84)"/></g><rect class="i" width="33.92" height="29.427" transform="translate(3.881 5.437)"/><path class="h" d="M21.376,21H0V39.573H21.376ZM4.127,23.551a1.815,1.815,0,0,1,0,3.623,1.815,1.815,0,0,1,0-3.623ZM14,36.146H2.577l5.711-9.373,3.841,6.3,2.4-3.939L18.8,36.146Z" transform="translate(10.203 -10.561)"/><rect class="j" width="19.713" height="3" rx="1.5" transform="translate(4.006 39.088)"/><rect class="k" width="33.795" height="3" rx="1.5" transform="translate(4.006 43.371)"/><rect class="k" width="33.795" height="3" rx="1.5" transform="translate(4.006 47.371)"/><g transform="translate(49.892)"><g class="aw" transform="matrix(1, 0, 0, 1, -68.89, -139.84)"><rect class="h" width="41.687" height="65.444" rx="1" transform="translate(68.89 139.84)"/></g><rect class="i" width="33.92" height="29.427" transform="translate(3.881 5.437)"/><path class="h" d="M21.376,21H0V39.573H21.376ZM4.127,23.551a1.815,1.815,0,0,1,0,3.623,1.815,1.815,0,0,1,0-3.623ZM14,36.146H2.577l5.711-9.373,3.841,6.3,2.4-3.939L18.8,36.146Z" transform="translate(10.203 -10.561)"/><rect class="j" width="19.713" height="3" rx="1.5" transform="translate(4.006 39.088)"/><rect class="k" width="33.795" height="3" rx="1.5" transform="translate(4.006 43.371)"/><rect class="k" width="33.795" height="3" rx="1.5" transform="translate(4.006 47.371)"/></g><g transform="translate(99.784)"><g class="av" transform="matrix(1, 0, 0, 1, -118.78, -139.84)"><rect class="h" width="41.687" height="65.444" rx="1" transform="translate(118.78 139.84)"/></g><rect class="i" width="33.92" height="29.427" transform="translate(3.881 5.437)"/><path class="h" d="M21.376,21H0V39.573H21.376ZM4.127,23.551a1.815,1.815,0,0,1,0,3.623,1.815,1.815,0,0,1,0-3.623ZM14,36.146H2.577l5.711-9.373,3.841,6.3,2.4-3.939L18.8,36.146Z" transform="translate(10.203 -10.561)"/><rect class="j" width="19.713" height="3" rx="1.5" transform="translate(4.006 39.088)"/><rect class="k" width="33.795" height="3" rx="1.5" transform="translate(4.006 43.371)"/><rect class="k" width="33.795" height="3" rx="1.5" transform="translate(4.006 47.371)"/></g><g transform="translate(149.676)"><g class="au" transform="matrix(1, 0, 0, 1, -168.67, -139.84)"><rect class="h" width="41.687" height="65.444" rx="1" transform="translate(168.67 139.84)"/></g><rect class="i" width="33.92" height="29.427" transform="translate(3.881 5.437)"/><path class="h" d="M21.376,21H0V39.573H21.376ZM4.127,23.551a1.815,1.815,0,0,1,0,3.623,1.815,1.815,0,0,1,0-3.623ZM14,36.146H2.577l5.711-9.373,3.841,6.3,2.4-3.939L18.8,36.146Z" transform="translate(10.203 -10.561)"/><rect class="j" width="19.713" height="3" rx="1.5" transform="translate(4.006 39.088)"/><rect class="k" width="33.795" height="3" rx="1.5" transform="translate(4.006 43.371)"/><rect class="k" width="33.795" height="3" rx="1.5" transform="translate(4.006 47.371)"/></g></g></g><rect class="o" width="216" height="156" rx="4" transform="translate(7 23)"/></g></g><g class="at" transform="matrix(1, 0, 0, 1, 1385, 1104)"><rect class="h" width="127" height="141" rx="3" transform="translate(52 52)"/></g><g transform="translate(1441.648 1159.853)"><g transform="translate(23.24 0)"><g transform="translate(0)"><path class="p" d="M251.783,228.9c0,3.112-7.907,5.636-17.661,5.636s-17.66-2.524-17.66-5.636,7.907-5.637,17.66-5.637S251.783,225.783,251.783,228.9Z" transform="translate(-197.863 -176.76)"/><rect class="q" width="3.415" height="3.415" transform="matrix(0.966, 0.259, -0.259, 0.966, 4.061, 4.283)"/><rect class="q" width="3.415" height="3.415" transform="translate(59.816 6.605)"/><ellipse class="r" cx="1.708" cy="1.708" rx="1.708" ry="1.708" transform="translate(0 37.42)"/><ellipse class="r" cx="1.708" cy="1.708" rx="1.708" ry="1.708" transform="translate(41.209)"/><ellipse class="r" cx="1.708" cy="1.708" rx="1.708" ry="1.708" transform="translate(57.609 31.993)"/><path class="s" d="M1.708,0,3.415,2.561H0Z" transform="matrix(-0.966, -0.259, 0.259, -0.966, 14.097, 55.297)"/><path class="s" d="M1.708,0,3.415,2.561H0Z" transform="translate(14.303 22.441) rotate(173)"/><path class="s" d="M1.708,0,3.415,2.561H0Z" transform="translate(70.431 27.296) rotate(173)"/><path class="s" d="M1.708,0,3.415,2.561H0Z" transform="matrix(-0.407, 0.914, -0.914, -0.407, 63.034, 51.951)"/><path class="s" d="M1.708,0,3.415,3.415H0Z" transform="translate(22.975 11.983) rotate(-16)"/></g><g transform="translate(7.407 6.433)"><g transform="translate(0 0)"><g transform="translate(0 0)"><path class="t" d="M271.868,181.129s2.147,6.516,4.523,3.68c0,0,2.3-3.6,3.68-2.3.191.134,1.767,2.636-1.764,6.134,0,0-1.917,2.607-4.293,2.3Z" transform="translate(-235.107 -160.507)"/><path class="u" d="M283.04,185.077l3.018,2.444s1.581-2.674-.115-3.939C285.943,183.582,284.85,182.289,283.04,185.077Z" transform="translate(-241.123 -161.666)"/><g transform="translate(0 5.029)"><path class="v" d="M209.658,177.732s-3.757-2.07-4.83-5.367a7.846,7.846,0,0,1-.153-7.666s6.823-9.89,1.839-14.72c0,0-7.34-6.765-12.8,1.38-5.155,7.688,4.677,23.92,4.677,23.92s5.29,8.74,10.5,9.66C208.892,184.938,211.8,180.721,209.658,177.732Z" transform="translate(-192.217 -147.343)"/><g transform="translate(0.004 3.679)"><path class="u" d="M207.458,155.314c-4.044.072-11.287.226-13.895.443a10.58,10.58,0,0,0-1.331,5.913l15.809-.373A8.164,8.164,0,0,0,207.458,155.314Z" transform="translate(-192.225 -155.314)"/><path class="u" d="M207.982,172.229c-2.972.341-11.392,1.321-14.907,1.866a34.262,34.262,0,0,0,1.273,4.692l11.117-1.347A26.439,26.439,0,0,0,207.982,172.229Z" transform="translate(-192.683 -164.422)"/><path class="u" d="M207.939,189.808c-2.4.861-5.576,2-8.181,2.966.606,1.333,1.188,2.486,1.657,3.368l6.824-2.467A7.844,7.844,0,0,1,207.939,189.808Z" transform="translate(-196.281 -173.888)"/><path class="u" d="M213.9,202.986c-1.669,1.234-3.662,2.714-5.457,4.061a36.832,36.832,0,0,0,2.335,2.932l5.433-4.04A9.815,9.815,0,0,1,213.9,202.986Z" transform="translate(-200.958 -180.985)"/><path class="u" d="M223.738,212.471s-.209-.116-.535-.33l-4.839,5.007a14.617,14.617,0,0,0,2.066,1.519c1.363-1.4,2.808-2.9,4.063-4.2A4.181,4.181,0,0,0,223.738,212.471Z" transform="translate(-206.3 -185.914)"/></g><g class="w"><path class="x" d="M199.975,169.44a32.948,32.948,0,0,1,1.323-17.452,24.626,24.626,0,0,1,1.778-4.078c-2.62-1-6.29-1.136-9.364,3.448-5.155,7.688,4.677,23.92,4.677,23.92s5.29,8.74,10.5,9.66a9.116,9.116,0,0,0,.52-.892l-.08-.053A23.792,23.792,0,0,1,199.975,169.44Z" transform="translate(-192.217 -147.343)"/></g></g><path class="t" d="M269.277,206.668a4.3,4.3,0,0,1,2.415,5.233s-.46,4.082-2.588,5.864c0,0,3.335-.172,3.22.92,0,0,.173,1.495-3.737,1.495l-5.232-.4S266.574,208.163,269.277,206.668Z" transform="translate(-230.523 -174.259)"/><path class="y" d="M243.795,206.773a14.05,14.05,0,0,0,9.66-.959s6.44-2.53,5.443-14.872c0,0-.383-7.743-2.147-9.813l-6.133.383Z" transform="translate(-219.991 -160.507)"/><path class="t" d="M237.386,181.231l-4.752,7.13s-11.117,9.43-4.754,16.176c0,0,5.29,5.29,10.273-.077,0,0,5.443-7.283-.307-11.269l3.143-10.963.307-1.15-3.527-.613Z" transform="translate(-210.362 -160.148)"/><g class="w" transform="translate(15.552 20.316)"><path class="z" d="M231.5,200.175a17.34,17.34,0,0,1,1.344-8.573A51.724,51.724,0,0,1,237,183.891a28.819,28.819,0,0,1,2.165-3.184l-1.4-.243-.384.767-4.752,7.13s-11.117,9.43-4.754,16.176c0,0,2.623,2.619,5.915,2.3-.314-.564-.594-1.151-.848-1.739A18.465,18.465,0,0,1,231.5,200.175Z" transform="translate(-225.914 -180.464)"/></g><path class="t" d="M243.646,228.692s-.5,2.3,1.279,2.53c0,0,3.45.632,3.45,1.553l.057.8-14.03-.633s-.23-1.553.4-1.9C234.806,231.049,243.128,227.2,243.646,228.692Z" transform="translate(-214.911 -185.933)"/><g transform="translate(18.108 20.85)"><path class="t" d="M239.953,182.311s-3.064,4.163-3.858,2.079c0,0-1.813-3.481-3.769-2.593,0,0-1.8.656-.233,3.843,0,0,1.162,4.076,4.541,5.247C236.634,190.887,242.886,183.905,239.953,182.311Z" transform="translate(-231.451 -181.638)"/><path class="u" d="M235.962,184.1s-2.679,3.115-3.736,1.853c-.055-.066-1.7-3.009.12-4.174C232.346,181.781,234.365,180.715,235.962,184.1Z" transform="translate(-231.472 -181.622)"/></g><g transform="translate(17.971)"><path class="aa" d="M285.157,156.544" transform="translate(-260.234 -147.268)"/><path class="t" d="M263.013,155.745a8.16,8.16,0,0,1-3.711-3.908,16.128,16.128,0,0,0-5.014-6.632,10.861,10.861,0,0,0-4.071-1.93,12.854,12.854,0,0,0-4.113-.117,10.649,10.649,0,0,0-6.224,2.046,16.124,16.124,0,0,0-5.014,6.632,8.162,8.162,0,0,1-3.711,3.908,21.332,21.332,0,0,0,12.2,8.921s1.076.188,3.138.375a11.973,11.973,0,0,0,4.678-.5A20.43,20.43,0,0,0,263.013,155.745Z" transform="translate(-231.156 -140.003)"/><path class="u" d="M262.905,167.823c-.415-1.126-3.02-1.247-3.02-1.247l.474-1.063c1.539-4.378-2.547-5.442-2.547-5.442-5.259-1-8.2,6.882-8.794,8.658-.629-1.542-3.906-8.847-9.207-7.893a3.669,3.669,0,0,0-2.546,5.151l.473,1.007s-2.19-.77-2.6.3c10.8,10.713,13.3,3.209,13.3,3.209l-.447-.12c.259-.061.519-.131.778-.213,1.187,2.037,5.051,6.764,14.053-2.328Z" transform="translate(-233.298 -149.12)"/><g transform="translate(19.977)"><path class="ab" d="M274.459,141.335s-.383-2.109,2.445-3.164,4.6-1.486,4.938-1.726l1.247,4.6s1.007,4.267-1.678,6.04Z" transform="translate(-274.441 -136.445)"/><path class="y" d="M282.17,139.908s-5.913.959-5.53,3.548c0,0,.48,1.6,2.429.576l.511-.16s-.576,2.653,1.183,2.877c0,0,2.1.334,2.2-2.621C282.968,144.127,282.617,140.515,282.17,139.908Z" transform="translate(-275.616 -138.31)"/><g transform="translate(4.264 1.598)"><path class="ac" d="M285.971,139.908s-.646.106-1.5.339c.057.053.115.1.167.161a3.386,3.386,0,0,1,.734,2.477,5.177,5.177,0,0,1-.972,2.705,2.276,2.276,0,0,1-.723.665,1.265,1.265,0,0,0,.884.493s2.1.334,2.2-2.621C286.769,144.127,286.418,140.515,285.971,139.908Z" transform="translate(-283.681 -139.908)"/></g></g><g transform="translate(2.308 1.064)"><path class="ab" d="M237.21,138.751s-2.493,5.561.192,9.061l.912,1.295,6.568-6.232s-1.391-2.733-3.931-3.116C240.95,139.758,237.978,139.422,237.21,138.751Z" transform="translate(-236.157 -138.751)"/><path class="y" d="M239.661,143.538s-1.151,5.56.927,5.848c0,0,1.822-.031,2.11-1.469,0,0,2.844-.256,2.4-2.173C245.095,145.743,244.391,143.249,239.661,143.538Z" transform="translate(-237.873 -141.316)"/><g transform="translate(1.471 2.199)"><path class="ac" d="M240.685,144.575a3.532,3.532,0,0,1,.1-1.051c-.348-.013-.721-.01-1.126.015,0,0-1.151,5.56.927,5.848,0,0,1.684-.033,2.067-1.318A4.664,4.664,0,0,1,240.685,144.575Z" transform="translate(-239.343 -143.516)"/></g></g><path class="ad" d="M264.8,179.1a1.731,1.731,0,0,1-3.37,0c0-.735.737-1.018,1.667-1.018S264.8,178.36,264.8,179.1Z" transform="translate(-247.461 -158.864)"/><path class="y" d="M251.436,181.089s1.687-5.213,6.21-5.443c0,0,4.829.077,6.708,5.711C264.354,181.357,257.339,184.654,251.436,181.089Z" transform="translate(-242.076 -157.554)"/><path class="ae" d="M264.922,178.9a2.191,2.191,0,0,1-4.264,0c0-.932.932-1.289,2.11-1.289S264.922,177.972,264.922,178.9Z" transform="translate(-247.042 -158.614)"/><g transform="translate(9.309 15.806)"><path class="af" d="M185.22,526.952a1.67,1.67,0,1,0,1.461-1.857A1.67,1.67,0,0,0,185.22,526.952Z" transform="translate(-185.208 -525.083)"/><path class="ag" d="M188.884,529.988a1.1,1.1,0,1,0,.965-1.226A1.1,1.1,0,0,0,188.884,529.988Z" transform="translate(-188.309 -528.187)"/><path class="h" d="M191.525,538.3a.467.467,0,1,0,.408-.519A.467.467,0,0,0,191.525,538.3Z" transform="translate(-190.545 -535.812)"/><path class="h" d="M196.01,532.133a.239.239,0,1,0,.21-.266A.239.239,0,0,0,196.01,532.133Z" transform="translate(-194.339 -530.816)"/></g><g transform="translate(18.769 15.784)"><path class="af" d="M251.415,526.964a1.681,1.681,0,1,1-1.471-1.869A1.681,1.681,0,0,1,251.415,526.964Z" transform="translate(-248.064 -525.083)"/><path class="ag" d="M253.946,530a1.111,1.111,0,1,1-.971-1.234A1.111,1.111,0,0,1,253.946,530Z" transform="translate(-251.161 -528.183)"/><path class="h" d="M258.256,538.3a.47.47,0,1,1-.411-.522A.471.471,0,0,1,258.256,538.3Z" transform="translate(-255.879 -535.799)"/><path class="h" d="M256.257,532.135a.241.241,0,1,1-.211-.268A.241.241,0,0,1,256.257,532.135Z" transform="translate(-254.577 -530.809)"/></g></g></g><g transform="translate(8.913 9.58)"><path class="ah" d="M6.676,0a6.743,6.743,0,0,1,.011,13.486A6.743,6.743,0,0,1,6.676,0Z" transform="translate(0 13.306) rotate(-84.657)"/><path class="ai" d="M208.223,257.247a6.756,6.756,0,1,1-6.744-6.356A6.559,6.559,0,0,1,208.223,257.247Z" transform="translate(-194.144 -250.23)"/><path class="aj" d="M216.819,264.259a5.58,5.58,0,1,1-5.58-5.529A5.555,5.555,0,0,1,216.819,264.259Z" transform="translate(-203.903 -257.242)"/><text class="ak" transform="translate(4.791 10.135)"><tspan x="0" y="0">$</tspan></text><path class="h" d="M304.334,276.277a6.046,6.046,0,0,0-1.624-4.45c-.715-.776,3.028,3.646.549,7.222C302.517,280.119,304.344,279.065,304.334,276.277Z" transform="translate(-290.532 -268.876)"/></g><rect class="u" width="1.385" height="2.308" rx="0.692" transform="matrix(0.899, -0.438, 0.438, 0.899, 19.955, 21.217)"/></g><path class="al" d="M5918.916,344.436c1.267,1.624,2.614,1.242,3.5.475" transform="translate(-5887.671 -321.621)"/></g></g></g><text class="am" transform="translate(1456 1239)"><tspan x="0" y="0">$90</tspan><tspan class="an" y="0" xml:space="preserve"> saved!</tspan></text><g transform="translate(1478.297 1277.681)"><g transform="translate(0 0)"><g transform="translate(0 0)"><path class="ao" d="M1.994,26.716H1.042A1.073,1.073,0,0,1,0,25.618V21.884a.134.134,0,0,1,0-.018v-.8a6.835,6.835,0,0,1,1.225-1.32l.041.055a.723.723,0,0,0,.07.087,5.848,5.848,0,0,0,.706.583A.875.875,0,0,0,3,21.2a.9.9,0,0,0,.761-.951A.887.887,0,0,0,2.9,19.4a.893.893,0,0,0-.156.015,5.555,5.555,0,0,1-.532-.431.372.372,0,0,1-.033-.041l-.018-.025c.1-.091.184-.155.253-.211h0c.24-.2.36-.293.481-.293s.235.091.488.3c.832.681,2.405,2.051,2.4,2.359v4.557a1.073,1.073,0,0,1-1.044,1.1H3.874l-.525-1.992a1.028,1.028,0,0,0,.534-1.14.967.967,0,0,0-1.9,0,1.028,1.028,0,0,0,.534,1.14L1.99,26.722Z" transform="translate(0.004 -16.732)"/><path class="ap" d="M13.579,3.869a.3.3,0,0,1-.169-.053,10.223,10.223,0,0,1-1.1-.86A1.89,1.89,0,0,1,12.27.362,1.154,1.154,0,0,1,13.648.126,3.688,3.688,0,0,1,14.821,1a1.027,1.027,0,0,0,.766.412.581.581,0,0,0,.381-.242.3.3,0,0,1,.424-.095.327.327,0,0,1,.091.441,1.18,1.18,0,0,1-.831.53,1.553,1.553,0,0,1-1.264-.6A3.145,3.145,0,0,0,13.42.718.561.561,0,0,0,12.7.813,1.232,1.232,0,0,0,12.747,2.5a9.369,9.369,0,0,0,1,.78.326.326,0,0,1,.123.358.308.308,0,0,1-.294.226Z" transform="translate(-10.745 -0.002)"/><g transform="translate(7.768 3.316)"><path class="aq" d="M93.006,46.617H91.484l-.915-1.576c-.068-.12-.134-.227-.2-.321a1.85,1.85,0,0,0-.191-.242.761.761,0,0,0-.2-.154.491.491,0,0,0-.228-.053H89.4v2.345H88.07V40.49h2.1q2.142,0,2.142,1.666a1.791,1.791,0,0,1-.095.592,1.667,1.667,0,0,1-.263.489,1.722,1.722,0,0,1-.417.376,2.107,2.107,0,0,1-.544.248v.017a.823.823,0,0,1,.254.139,1.778,1.778,0,0,1,.238.224,3.217,3.217,0,0,1,.22.273c.07.1.133.2.191.289ZM89.4,41.525v1.7h.575a.93.93,0,0,0,.684-.256.874.874,0,0,0,.263-.645q0-.8-.923-.8Z" transform="translate(-88.07 -40.14)"/><path class="aq" d="M147.106,61.178h-2.741q.066.952,1.153.952a2.183,2.183,0,0,0,1.219-.342v.974a3.085,3.085,0,0,1-1.514.324,2.086,2.086,0,0,1-1.58-.587,2.271,2.271,0,0,1-.562-1.641,2.388,2.388,0,0,1,.607-1.726,1.984,1.984,0,0,1,1.493-.638,1.8,1.8,0,0,1,1.422.568,2.249,2.249,0,0,1,.5,1.543Zm-1.2-.829q0-.941-.73-.941a.69.69,0,0,0-.54.273,1.246,1.246,0,0,0-.277.671Z" transform="translate(-138.265 -56.504)"/><path class="aq" d="M198.233,42.618h-.017v.509h-1.3V36.65h1.3v2.76h.017a1.524,1.524,0,0,1,1.366-.765,1.475,1.475,0,0,1,1.251.582,2.57,2.57,0,0,1,.438,1.589,2.792,2.792,0,0,1-.513,1.756,1.645,1.645,0,0,1-1.371.662A1.307,1.307,0,0,1,198.233,42.618Zm-.037-1.846v.449a1.049,1.049,0,0,0,.234.7.748.748,0,0,0,.6.278.784.784,0,0,0,.687-.356,1.776,1.776,0,0,0,.244-1.011,1.4,1.4,0,0,0-.223-.848.744.744,0,0,0-.638-.306.809.809,0,0,0-.646.3A1.18,1.18,0,0,0,198.2,40.773Z" transform="translate(-187.392 -36.65)"/><path class="aq" d="M254.816,63.022H253.59v-.628h-.016a1.359,1.359,0,0,1-1.252.735,1.272,1.272,0,0,1-.963-.365,1.333,1.333,0,0,1-.35-.963q0-1.276,1.449-1.469l1.138-.159q0-.717-.747-.717a2.479,2.479,0,0,0-1.429.466V58.907a3.151,3.151,0,0,1,.741-.256,3.765,3.765,0,0,1,.86-.111q1.8,0,1.8,1.867ZM253.6,61.244v-.293l-.763.1q-.632.087-.632.594a.5.5,0,0,0,.154.378.576.576,0,0,0,.417.147.752.752,0,0,0,.594-.263A.973.973,0,0,0,253.6,61.244Z" transform="translate(-236.748 -56.545)"/><path class="aq" d="M303.857,50.783a1.844,1.844,0,0,1-.866.158q-1.369,0-1.37-1.482V47.453h-.681v-.994h.681v-.944l1.292-.385v1.329h.944v1h-.944V49.22q0,.684.525.684a.849.849,0,0,0,.422-.124Z" transform="translate(-282.307 -44.357)"/><path class="aq" d="M342.472,61.178h-2.741q.066.952,1.153.952a2.183,2.183,0,0,0,1.218-.342v.974a3.085,3.085,0,0,1-1.514.324,2.071,2.071,0,0,1-1.576-.587,2.3,2.3,0,0,1-.563-1.641,2.388,2.388,0,0,1,.607-1.726,1.984,1.984,0,0,1,1.493-.638,1.8,1.8,0,0,1,1.422.568,2.233,2.233,0,0,1,.5,1.547Zm-1.2-.829q0-.941-.73-.941a.691.691,0,0,0-.539.273,1.247,1.247,0,0,0-.277.667Z" transform="translate(-316.534 -56.504)"/><g transform="translate(27.077 0.35)"><path class="ar" d="M402.3,46.617h-1.674l-1.716-2.661a2.647,2.647,0,0,1-.156-.337h-.02v3H397.41V40.49h1.325v2.9h.02c.033-.079.088-.193.165-.342l1.625-2.552h1.576l-2.047,2.92Z" transform="translate(-397.41 -40.49)"/><path class="ar" d="M457.552,61.178h-2.741q.065.952,1.153.952a2.183,2.183,0,0,0,1.218-.342v.974a3.085,3.085,0,0,1-1.514.324,2.071,2.071,0,0,1-1.576-.587,2.3,2.3,0,0,1-.563-1.641,2.388,2.388,0,0,1,.607-1.726,1.984,1.984,0,0,1,1.493-.638,1.8,1.8,0,0,1,1.422.568,2.24,2.24,0,0,1,.5,1.543Zm-1.2-.829q0-.941-.73-.941a.691.691,0,0,0-.539.273,1.248,1.248,0,0,0-.277.671Z" transform="translate(-448.618 -56.854)"/><path class="ar" d="M505.47,59.7l-1.707,4.726q-.613,1.7-1.854,1.7a2.291,2.291,0,0,1-.775-.111V64.944a1.063,1.063,0,0,0,.562.158.7.7,0,0,0,.7-.491l.221-.542L500.91,59.7h1.435l.788,2.662a3.571,3.571,0,0,1,.115.585h.017a4.181,4.181,0,0,1,.131-.578l.792-2.671Z" transform="translate(-491.851 -57.949)"/></g></g></g></g></g><rect class="as" width="63.811" height="4" rx="2" transform="translate(1449.99 1262.415)"/><rect class="as" width="63.811" height="4" rx="2" transform="translate(1449.99 1252.415)"/><rect class="ar" width="27.668" height="4" rx="2" transform="translate(1522.278 1262.415)"/><rect class="an" width="27.668" height="4" rx="2" transform="translate(1522.278 1252.415)"/></g></svg>