<svg xmlns="http://www.w3.org/2000/svg" xmlns:xlink="http://www.w3.org/1999/xlink" width="294.999" height="209" viewBox="0 0 294.999 209"><defs><style>.a,.h,.s{fill:#fff;}.a{stroke:#707070;}.b{fill:#f8fafd;}.c{fill:#dfe2e9;}.d{fill:#ff6464;}.e{fill:#ffe182;}.f{fill:#a5d76e;}.g{fill:#f5f8ff;}.i{fill:#e6e9ef;}.j,.k,.q{fill:#a7adb7;}.k{opacity:0.28;}.l{fill:#f90;}.l,.m{fill-rule:evenodd;}.n{clip-path:url(#i);}.o{fill:url(#r);}.p{fill:#20a8d8;}.q{opacity:0.65;}.r{fill:url(#w);}.s{font-size:9px;font-family:Lato-Bold, Lato;font-weight:700;}.t{fill:#1a87ad;}.u{filter:url(#ab);}.v{filter:url(#z);}.w{filter:url(#x);}.x{filter:url(#u);}.y{filter:url(#s);}.z{filter:url(#p);}.aa{filter:url(#n);}.ab{filter:url(#l);}.ac{filter:url(#j);}.ad{filter:url(#g);}.ae{filter:url(#e);}.af{filter:url(#c);}.ag{filter:url(#a);}</style><filter id="a" x="76.494" y="59.343" width="56.687" height="80.443" filterUnits="userSpaceOnUse"><feOffset dy="1" input="SourceAlpha"/><feGaussianBlur stdDeviation="2.5" result="b"/><feFlood flood-opacity="0.102"/><feComposite operator="in" in2="b"/><feComposite in="SourceGraphic"/></filter><filter id="c" x="126.386" y="59.343" width="56.687" height="80.443" filterUnits="userSpaceOnUse"><feOffset dy="1" input="SourceAlpha"/><feGaussianBlur stdDeviation="2.5" result="d"/><feFlood flood-opacity="0.102"/><feComposite operator="in" in2="d"/><feComposite in="SourceGraphic"/></filter><filter id="e" x="176.278" y="59.343" width="56.687" height="80.443" filterUnits="userSpaceOnUse"><feOffset dy="1" input="SourceAlpha"/><feGaussianBlur stdDeviation="2.5" result="f"/><feFlood flood-opacity="0.102"/><feComposite operator="in" in2="f"/><feComposite in="SourceGraphic"/></filter><filter id="g" x="226.17" y="59.343" width="56.687" height="80.443" filterUnits="userSpaceOnUse"><feOffset dy="1" input="SourceAlpha"/><feGaussianBlur stdDeviation="2.5" result="h"/><feFlood flood-opacity="0.102"/><feComposite operator="in" in2="h"/><feComposite in="SourceGraphic"/></filter><clipPath id="i"><rect class="a" width="200" height="116" transform="translate(14 63)"/></clipPath><filter id="j" x="76.494" y="133.343" width="56.687" height="80.443" filterUnits="userSpaceOnUse"><feOffset dy="1" input="SourceAlpha"/><feGaussianBlur stdDeviation="2.5" result="k"/><feFlood flood-opacity="0.102"/><feComposite operator="in" in2="k"/><feComposite in="SourceGraphic"/></filter><filter id="l" x="126.386" y="133.343" width="56.687" height="80.443" filterUnits="userSpaceOnUse"><feOffset dy="1" input="SourceAlpha"/><feGaussianBlur stdDeviation="2.5" result="m"/><feFlood flood-opacity="0.102"/><feComposite operator="in" in2="m"/><feComposite in="SourceGraphic"/></filter><filter id="n" x="176.278" y="133.343" width="56.687" height="80.443" filterUnits="userSpaceOnUse"><feOffset dy="1" input="SourceAlpha"/><feGaussianBlur stdDeviation="2.5" result="o"/><feFlood flood-opacity="0.102"/><feComposite operator="in" in2="o"/><feComposite in="SourceGraphic"/></filter><filter id="p" x="226.17" y="133.343" width="56.687" height="80.443" filterUnits="userSpaceOnUse"><feOffset dy="1" input="SourceAlpha"/><feGaussianBlur stdDeviation="2.5" result="q"/><feFlood flood-opacity="0.102"/><feComposite operator="in" in2="q"/><feComposite in="SourceGraphic"/></filter><radialGradient id="r" cx="0.5" cy="0.5" r="0.882" gradientTransform="translate(-0.285 0.03) scale(1.571 0.94)" gradientUnits="objectBoundingBox"><stop offset="0" stop-color="#89f7fe"/><stop offset="1" stop-color="#20a8d8"/></radialGradient><filter id="s" x="0" y="56" width="120.999" height="153" filterUnits="userSpaceOnUse"><feOffset input="SourceAlpha"/><feGaussianBlur stdDeviation="5" result="t"/><feFlood flood-color="#20a8d8" flood-opacity="0.702"/><feComposite operator="in" in2="t"/><feComposite in="SourceGraphic"/></filter><filter id="u" x="9.499" y="67.5" width="102" height="134" filterUnits="userSpaceOnUse"><feOffset dy="2" input="SourceAlpha"/><feGaussianBlur stdDeviation="2.5" result="v"/><feFlood flood-opacity="0.239"/><feComposite operator="in" in2="v"/><feComposite in="SourceGraphic"/></filter><linearGradient id="w" x1="0.5" x2="0.5" y2="1" gradientUnits="objectBoundingBox"><stop offset="0" stop-color="#2ec9ff"/><stop offset="1" stop-color="#20a8d8"/></linearGradient><filter id="x" x="44.155" y="171" width="44" height="12" filterUnits="userSpaceOnUse"><feOffset dy="1" input="SourceAlpha"/><feGaussianBlur result="y"/><feFlood flood-opacity="0.161"/><feComposite operator="in" in2="y"/><feComposite in="SourceGraphic"/></filter><filter id="z" x="34.46" y="171" width="5.678" height="5.433" filterUnits="userSpaceOnUse"><feOffset dy="1" input="SourceAlpha"/><feGaussianBlur result="aa"/><feFlood flood-opacity="0.161"/><feComposite operator="in" in2="aa"/><feComposite in="SourceGraphic"/></filter><filter id="ab" x="33" y="172.924" width="7.354" height="10.107" filterUnits="userSpaceOnUse"><feOffset dy="1" input="SourceAlpha"/><feGaussianBlur result="ac"/><feFlood flood-opacity="0.161"/><feComposite operator="in" in2="ac"/><feComposite in="SourceGraphic"/></filter></defs><g transform="translate(-805.001 -1104)"><g transform="translate(591 40)"><g transform="translate(279 1064)"><path class="b" d="M3,0H230.255V170.862H3Z" transform="translate(-0.7 15.138)"/><path class="c" d="M218.1,52.966H11.9A12.006,12.006,0,0,0,0,65.078v161.5a12.006,12.006,0,0,0,11.9,12.113H218.1A12.006,12.006,0,0,0,230,226.576V65.078A12.006,12.006,0,0,0,218.1,52.966Zm5.248,174.9a4,4,0,0,1-3.966,4.038H10.615a4,4,0,0,1-3.966-4.038V79.934A4,4,0,0,1,10.615,75.9h208.77a4,4,0,0,1,3.966,4.038Z" transform="translate(0 -52.966)"/><circle class="d" cx="4.022" cy="4.022" r="4.022" transform="translate(8.043 8.042)"/><circle class="e" cx="4.022" cy="4.022" r="4.022" transform="translate(20.107 8.042)"/><circle class="f" cx="4.022" cy="4.022" r="4.022" transform="translate(32.171 8.042)"/><g transform="translate(45.017 8.042)"><path class="g" d="M113.973,78.663h-4.022a4.022,4.022,0,0,1-4.022-4.021h0a4.022,4.022,0,0,1,4.022-4.022h4.022a4.022,4.022,0,0,1,4.022,4.022h0A4.022,4.022,0,0,1,113.973,78.663Z" transform="translate(-105.93 -70.62)"/><path class="g" d="M149.284,78.663h-4.022a4.022,4.022,0,0,1-4.022-4.021h0a4.022,4.022,0,0,1,4.022-4.022h4.022a4.022,4.022,0,0,1,4.022,4.022h0A4.022,4.022,0,0,1,149.284,78.663Z" transform="translate(-125.155 -70.62)"/><path class="g" d="M440.594,78.663h-4.021a4.022,4.022,0,0,1-4.022-4.021h0a4.022,4.022,0,0,1,4.022-4.022h4.021a4.022,4.022,0,0,1,4.022,4.022h0A4.022,4.022,0,0,1,440.594,78.663Z" transform="translate(-283.76 -70.62)"/><path class="g" d="M475.9,78.663h-4.022a4.022,4.022,0,0,1-4.022-4.021h0a4.022,4.022,0,0,1,4.022-4.022H475.9a4.022,4.022,0,0,1,4.022,4.022h0A4.022,4.022,0,0,1,475.9,78.663Z" transform="translate(-302.985 -70.62)"/><path class="g" d="M285.913,78.663H189.4a4.022,4.022,0,0,1-4.022-4.021h0A4.022,4.022,0,0,1,189.4,70.62h96.513a4.022,4.022,0,0,1,4.021,4.022h0A4.022,4.022,0,0,1,285.913,78.663Z" transform="translate(-149.186 -70.62)"/></g><g transform="translate(18.995 65.843)"><g class="ag" transform="matrix(1, 0, 0, 1, -83.99, -65.84)"><rect class="h" width="41.687" height="65.444" rx="1" transform="translate(83.99 65.84)"/></g><rect class="i" width="33.92" height="29.427" transform="translate(3.881 5.437)"/><path class="h" d="M21.376,21H0V39.573H21.376ZM4.127,23.551a1.815,1.815,0,0,1,0,3.623,1.815,1.815,0,0,1,0-3.623ZM14,36.146H2.577l5.711-9.373,3.841,6.3,2.4-3.939L18.8,36.146Z" transform="translate(10.203 -10.561)"/><rect class="j" width="19.713" height="3" rx="1.5" transform="translate(4.006 39.088)"/><rect class="k" width="33.795" height="3" rx="1.5" transform="translate(4.006 43.371)"/><rect class="k" width="33.795" height="3" rx="1.5" transform="translate(4.006 47.371)"/><g transform="translate(49.892)"><g class="af" transform="matrix(1, 0, 0, 1, -133.89, -65.84)"><rect class="h" width="41.687" height="65.444" rx="1" transform="translate(133.89 65.84)"/></g><rect class="i" width="33.92" height="29.427" transform="translate(3.881 5.437)"/><path class="h" d="M21.376,21H0V39.573H21.376ZM4.127,23.551a1.815,1.815,0,0,1,0,3.623,1.815,1.815,0,0,1,0-3.623ZM14,36.146H2.577l5.711-9.373,3.841,6.3,2.4-3.939L18.8,36.146Z" transform="translate(10.203 -10.561)"/><rect class="j" width="19.713" height="3" rx="1.5" transform="translate(4.006 39.088)"/><rect class="k" width="33.795" height="3" rx="1.5" transform="translate(4.006 43.371)"/><rect class="k" width="33.795" height="3" rx="1.5" transform="translate(4.006 47.371)"/></g><g transform="translate(99.784)"><g class="ae" transform="matrix(1, 0, 0, 1, -183.78, -65.84)"><rect class="h" width="41.687" height="65.444" rx="1" transform="translate(183.78 65.84)"/></g><rect class="i" width="33.92" height="29.427" transform="translate(3.881 5.437)"/><path class="h" d="M21.376,21H0V39.573H21.376ZM4.127,23.551a1.815,1.815,0,0,1,0,3.623,1.815,1.815,0,0,1,0-3.623ZM14,36.146H2.577l5.711-9.373,3.841,6.3,2.4-3.939L18.8,36.146Z" transform="translate(10.203 -10.561)"/><rect class="j" width="19.713" height="3" rx="1.5" transform="translate(4.006 39.088)"/><rect class="k" width="33.795" height="3" rx="1.5" transform="translate(4.006 43.371)"/><rect class="k" width="33.795" height="3" rx="1.5" transform="translate(4.006 47.371)"/></g><g transform="translate(149.676)"><g class="ad" transform="matrix(1, 0, 0, 1, -233.67, -65.84)"><rect class="h" width="41.687" height="65.444" rx="1" transform="translate(233.67 65.84)"/></g><rect class="i" width="33.92" height="29.427" transform="translate(3.881 5.437)"/><path class="h" d="M21.376,21H0V39.573H21.376ZM4.127,23.551a1.815,1.815,0,0,1,0,3.623,1.815,1.815,0,0,1,0-3.623ZM14,36.146H2.577l5.711-9.373,3.841,6.3,2.4-3.939L18.8,36.146Z" transform="translate(10.203 -10.561)"/><rect class="j" width="19.713" height="3" rx="1.5" transform="translate(4.006 39.088)"/><rect class="k" width="33.795" height="3" rx="1.5" transform="translate(4.006 43.371)"/><rect class="k" width="33.795" height="3" rx="1.5" transform="translate(4.006 47.371)"/></g></g><g transform="translate(19 35.033)"><path class="l" d="M168.668,194.8a22.218,22.218,0,0,1-12.531,3.831,22.676,22.676,0,0,1-15.308-5.842c-.317-.287-.033-.678.348-.454a30.811,30.811,0,0,0,15.316,4.062,30.456,30.456,0,0,0,11.683-2.389c.574-.244,1.054.376.493.792" transform="translate(-132.486 -181.054)"/><path class="l" d="M576.129,183.344c-.432-.553-2.864-.261-3.955-.132-.332.041-.383-.249-.084-.457,1.937-1.363,5.115-.97,5.486-.513s-.1,3.646-1.917,5.166c-.279.234-.546.109-.422-.2.409-1.021,1.325-3.308.891-3.864" transform="translate(-538.538 -171.211)"/><path class="m" d="M572.574,6.1V4.775a.327.327,0,0,1,.335-.335h5.933a.33.33,0,0,1,.343.335V5.91a1.866,1.866,0,0,1-.447.833l-3.074,4.389a6.551,6.551,0,0,1,3.384.726.6.6,0,0,1,.315.515v1.414c0,.193-.213.419-.437.3a6.834,6.834,0,0,0-6.268.01c-.206.112-.421-.112-.421-.3V12.452a1.6,1.6,0,0,1,.218-.911l3.562-5.108h-3.1a.328.328,0,0,1-.343-.333" transform="translate(-538.863 -4.181)"/><path class="m" d="M172.589,11.623h-1.805a.341.341,0,0,1-.322-.307V2.052a.339.339,0,0,1,.348-.333h1.683a.34.34,0,0,1,.328.31V3.24h.033a2.48,2.48,0,0,1,4.719,0,2.666,2.666,0,0,1,4.582-.7,4.93,4.93,0,0,1,.454,2.9l0,5.847a.341.341,0,0,1-.348.335h-1.8a.343.343,0,0,1-.325-.335V6.378a11.6,11.6,0,0,0-.051-1.736.94.94,0,0,0-1.061-.8,1.2,1.2,0,0,0-1.079.759,5.608,5.608,0,0,0-.168,1.775v4.91a.341.341,0,0,1-.348.335h-1.8a.341.341,0,0,1-.325-.335l0-4.91c0-1.033.17-2.554-1.112-2.554-1.3,0-1.247,1.483-1.247,2.554v4.91a.341.341,0,0,1-.348.335" transform="translate(-160.52 -1.435)"/><path class="m" d="M713.373,1.524c2.678,0,4.128,2.3,4.128,5.225,0,2.826-1.6,5.067-4.128,5.067-2.63,0-4.062-2.3-4.062-5.166,0-2.884,1.45-5.126,4.062-5.126m.015,1.891c-1.33,0-1.414,1.813-1.414,2.942s-.018,3.549,1.4,3.549c1.4,0,1.465-1.95,1.465-3.138a8.561,8.561,0,0,0-.269-2.457,1.129,1.129,0,0,0-1.18-.9" transform="translate(-667.943 -1.435)"/><path class="m" d="M874.976,11.623h-1.8a.343.343,0,0,1-.325-.335l0-9.266a.341.341,0,0,1,.348-.3h1.673a.346.346,0,0,1,.323.259V3.395h.033a2.455,2.455,0,0,1,2.46-1.871,2.368,2.368,0,0,1,2.107,1.092,5.887,5.887,0,0,1,.472,2.884v5.831a.347.347,0,0,1-.348.292h-1.81a.342.342,0,0,1-.32-.292V6.3c0-1.013.117-2.5-1.13-2.5a1.18,1.18,0,0,0-1.044.741,4.1,4.1,0,0,0-.287,1.754v4.989a.347.347,0,0,1-.353.335" transform="translate(-821.945 -1.435)"/><path class="m" d="M411.056,5.763a3.531,3.531,0,0,1-.338,1.914,1.467,1.467,0,0,1-1.249.82c-.693,0-1.1-.528-1.1-1.307,0-1.538,1.379-1.818,2.686-1.818v.391m1.82,4.4a.377.377,0,0,1-.427.043A4.4,4.4,0,0,1,411.414,9a3.574,3.574,0,0,1-2.975,1.313,2.56,2.56,0,0,1-2.7-2.813,3.063,3.063,0,0,1,1.924-2.95,12.508,12.508,0,0,1,3.394-.627V3.692a2.3,2.3,0,0,0-.221-1.307,1.2,1.2,0,0,0-1.013-.47A1.373,1.373,0,0,0,408.372,3a.378.378,0,0,1-.315.33l-1.749-.188a.318.318,0,0,1-.269-.378C406.44.64,408.36,0,410.076,0a4.093,4.093,0,0,1,2.719.9c.878.82.795,1.914.795,3.1V6.817a2.468,2.468,0,0,0,.68,1.673.341.341,0,0,1-.008.48c-.368.307-1.023.878-1.384,1.2l0-.005" transform="translate(-382.074)"/><path class="m" d="M5.319,5.763a3.531,3.531,0,0,1-.338,1.914,1.464,1.464,0,0,1-1.249.82c-.693,0-1.1-.528-1.1-1.307,0-1.538,1.379-1.818,2.683-1.818v.391m1.82,4.4a.377.377,0,0,1-.427.043A4.444,4.444,0,0,1,5.677,9,3.571,3.571,0,0,1,2.7,10.315,2.562,2.562,0,0,1,0,7.5a3.067,3.067,0,0,1,1.924-2.95,12.507,12.507,0,0,1,3.394-.627V3.691A2.322,2.322,0,0,0,5.1,2.384a1.208,1.208,0,0,0-1.013-.47A1.376,1.376,0,0,0,2.635,3a.378.378,0,0,1-.312.33L.571,3.141A.32.32,0,0,1,.3,2.762C.706.64,2.622,0,4.339,0A4.092,4.092,0,0,1,7.058.9c.878.82.795,1.914.795,3.1V6.817a2.469,2.469,0,0,0,.68,1.673.339.339,0,0,1-.005.48c-.368.307-1.023.878-1.384,1.2l-.005-.005" transform="translate(0)"/></g><g class="n"><g transform="translate(18.995 139.843)"><g class="ac" transform="matrix(1, 0, 0, 1, -83.99, -139.84)"><rect class="h" width="41.687" height="65.444" rx="1" transform="translate(83.99 139.84)"/></g><rect class="i" width="33.92" height="29.427" transform="translate(3.881 5.437)"/><path class="h" d="M21.376,21H0V39.573H21.376ZM4.127,23.551a1.815,1.815,0,0,1,0,3.623,1.815,1.815,0,0,1,0-3.623ZM14,36.146H2.577l5.711-9.373,3.841,6.3,2.4-3.939L18.8,36.146Z" transform="translate(10.203 -10.561)"/><rect class="j" width="19.713" height="3" rx="1.5" transform="translate(4.006 39.088)"/><rect class="k" width="33.795" height="3" rx="1.5" transform="translate(4.006 43.371)"/><rect class="k" width="33.795" height="3" rx="1.5" transform="translate(4.006 47.371)"/><g transform="translate(49.892)"><g class="ab" transform="matrix(1, 0, 0, 1, -133.89, -139.84)"><rect class="h" width="41.687" height="65.444" rx="1" transform="translate(133.89 139.84)"/></g><rect class="i" width="33.92" height="29.427" transform="translate(3.881 5.437)"/><path class="h" d="M21.376,21H0V39.573H21.376ZM4.127,23.551a1.815,1.815,0,0,1,0,3.623,1.815,1.815,0,0,1,0-3.623ZM14,36.146H2.577l5.711-9.373,3.841,6.3,2.4-3.939L18.8,36.146Z" transform="translate(10.203 -10.561)"/><rect class="j" width="19.713" height="3" rx="1.5" transform="translate(4.006 39.088)"/><rect class="k" width="33.795" height="3" rx="1.5" transform="translate(4.006 43.371)"/><rect class="k" width="33.795" height="3" rx="1.5" transform="translate(4.006 47.371)"/></g><g transform="translate(99.784)"><g class="aa" transform="matrix(1, 0, 0, 1, -183.78, -139.84)"><rect class="h" width="41.687" height="65.444" rx="1" transform="translate(183.78 139.84)"/></g><rect class="i" width="33.92" height="29.427" transform="translate(3.881 5.437)"/><path class="h" d="M21.376,21H0V39.573H21.376ZM4.127,23.551a1.815,1.815,0,0,1,0,3.623,1.815,1.815,0,0,1,0-3.623ZM14,36.146H2.577l5.711-9.373,3.841,6.3,2.4-3.939L18.8,36.146Z" transform="translate(10.203 -10.561)"/><rect class="j" width="19.713" height="3" rx="1.5" transform="translate(4.006 39.088)"/><rect class="k" width="33.795" height="3" rx="1.5" transform="translate(4.006 43.371)"/><rect class="k" width="33.795" height="3" rx="1.5" transform="translate(4.006 47.371)"/></g><g transform="translate(149.676)"><g class="z" transform="matrix(1, 0, 0, 1, -233.67, -139.84)"><rect class="h" width="41.687" height="65.444" rx="1" transform="translate(233.67 139.84)"/></g><rect class="i" width="33.92" height="29.427" transform="translate(3.881 5.437)"/><path class="h" d="M21.376,21H0V39.573H21.376ZM4.127,23.551a1.815,1.815,0,0,1,0,3.623,1.815,1.815,0,0,1,0-3.623ZM14,36.146H2.577l5.711-9.373,3.841,6.3,2.4-3.939L18.8,36.146Z" transform="translate(10.203 -10.561)"/><rect class="j" width="19.713" height="3" rx="1.5" transform="translate(4.006 39.088)"/><rect class="k" width="33.795" height="3" rx="1.5" transform="translate(4.006 43.371)"/><rect class="k" width="33.795" height="3" rx="1.5" transform="translate(4.006 47.371)"/></g></g></g></g></g><g class="y" transform="matrix(1, 0, 0, 1, 805, 1104)"><path class="o" d="M88,123H3a3,3,0,0,1-3-3V3A3,3,0,0,1,3,0H88a3,3,0,0,1,3,3V120A3,3,0,0,1,88,123ZM5,2A3,3,0,0,0,2,5V118a3,3,0,0,0,3,3H86a3,3,0,0,0,3-3V5a3,3,0,0,0-3-3Z" transform="translate(15 71)"/></g><g class="x" transform="matrix(1, 0, 0, 1, 805, 1104)"><rect class="h" width="87" height="119" rx="3" transform="translate(17 73)"/></g><rect class="i" width="73.043" height="56.089" transform="translate(829 1184)"/><path class="h" d="M60.5,21H0V66.235H60.5ZM11.681,27.214a4.615,4.615,0,0,1,4.794,4.412,4.615,4.615,0,0,1-4.794,4.412,4.615,4.615,0,0,1-4.794-4.412A4.615,4.615,0,0,1,11.681,27.214ZM39.619,57.89H7.292L23.455,35.062l10.87,15.351,6.794-9.594L53.206,57.89Z" transform="translate(835.322 1168.002)"/><rect class="p" width="42.669" height="4" rx="2" transform="translate(828.893 1245.931)"/><rect class="q" width="73.15" height="4" rx="2" transform="translate(828.893 1253.415)"/><rect class="q" width="73.15" height="4" rx="2" transform="translate(828.893 1260.415)"/><g transform="translate(5795.5 -571)"><rect class="r" width="73" height="17" rx="3" transform="translate(-4966.5 1843)"/><g transform="translate(-4966.979 1844.015)"><g transform="translate(1.156)"><g class="w" transform="matrix(1, 0, 0, 1, -24.68, -169.02)"><text class="s" transform="translate(66.16 180)"><tspan x="-21.987" y="0">Save 100%</tspan></text></g><g transform="translate(8.323 1.985)"><g class="v" transform="matrix(1, 0, 0, 1, -33, -171)"><path class="h" d="M13.929,4.435a.367.367,0,0,1-.2-.061,12.153,12.153,0,0,1-1.309-.986A2.1,2.1,0,0,1,12.366.414a1.417,1.417,0,0,1,1.646-.27,4.4,4.4,0,0,1,1.4,1.005,1.243,1.243,0,0,0,.914.472.7.7,0,0,0,.455-.278.366.366,0,0,1,.614.4,1.415,1.415,0,0,1-.992.608,1.887,1.887,0,0,1-1.509-.682A3.746,3.746,0,0,0,13.739.823a.689.689,0,0,0-.856.109,1.372,1.372,0,0,0,.052,1.939,11.139,11.139,0,0,0,1.2.894.366.366,0,0,1-.2.67Z" transform="translate(22.68 171)"/></g><g class="u" transform="matrix(1, 0, 0, 1, -33, -171)"><path class="h" d="M2.53,27.511H1.322A1.269,1.269,0,0,1,0,26.308V22.216a.127.127,0,0,1,0-.02v-.872a8,8,0,0,1,1.554-1.446l.052.06a.827.827,0,0,0,.089.095,7.3,7.3,0,0,0,.9.639,1.1,1.1,0,0,0,1.22.8,1.028,1.028,0,0,0,.965-1.042,1.059,1.059,0,0,0-1.091-.936,1.306,1.306,0,0,0-.2.016,6.957,6.957,0,0,1-.675-.472.425.425,0,0,1-.042-.045l-.023-.027c.131-.1.233-.17.321-.231h.006c.3-.214.456-.322.611-.322s.3.1.618.326c1.056.746,3.051,2.247,3.05,2.585v4.993a1.269,1.269,0,0,1-1.325,1.2H4.915l-.666-2.183a1.084,1.084,0,0,0,.678-1.249,1.216,1.216,0,0,0-1.207-.869,1.216,1.216,0,0,0-1.207.869,1.084,1.084,0,0,0,.678,1.249l-.666,2.183Z" transform="translate(33 154.51)"/></g></g></g></g><path class="t" d="M70.042,3.989H3a3,3,0,0,1-3-3V.1a2.992,2.992,0,0,0,3,2.89H70.042a3.006,3.006,0,0,0,3-2.989V.988A3,3,0,0,1,70.042,3.989Z" transform="translate(-4966.5 1856.245)"/></g></g></svg>