<svg xmlns="http://www.w3.org/2000/svg" xmlns:xlink="http://www.w3.org/1999/xlink" width="287.5" height="203.5" viewBox="0 0 287.5 203.5"><defs><style>.a{fill:#f8fafd;}.b{fill:#dfe2e9;}.c{fill:#ff6464;}.d{fill:#ffe182;}.e{fill:#a5d76e;}.f{fill:#f5f8ff;}.g{fill:url(#a);}.h{fill:#8fd3eb;}.i{fill:#666;}.j,.q{fill:#20a8d8;}.k,.n{fill:#fff;}.l{fill:#e6e9ef;}.m,.o{fill:#a7adb7;}.n,.q{font-size:7px;font-family:Lato-Black, Lato;font-weight:800;}.o{opacity:0.28;}.p,.s{fill:none;}.p{stroke:#e6e8eb;}.r{stroke:none;}.t{filter:url(#d);}.u{filter:url(#b);}</style><linearGradient id="a" x1="-8.855" y1="13.906" x2="-8.855" y2="13.895" gradientUnits="objectBoundingBox"><stop offset="0" stop-color="#54bce1"/><stop offset="1" stop-color="#20a8d8"/></linearGradient><filter id="b" x="68.834" y="79.343" width="207.756" height="96.214" filterUnits="userSpaceOnUse"><feOffset dy="1" input="SourceAlpha"/><feGaussianBlur stdDeviation="2.5" result="c"/><feFlood flood-opacity="0.102"/><feComposite operator="in" in2="c"/><feComposite in="SourceGraphic"/></filter><filter id="d" x="0" y="81.5" width="118" height="122" filterUnits="userSpaceOnUse"><feOffset dy="2" input="SourceAlpha"/><feGaussianBlur stdDeviation="2.5" result="e"/><feFlood flood-opacity="0.239"/><feComposite operator="in" in2="e"/><feComposite in="SourceGraphic"/></filter></defs><g transform="translate(-221.5 -1064)"><g transform="translate(279 1064)"><path class="a" d="M3,0H230.255V170.862H3Z" transform="translate(-0.7 15.138)"/><path class="b" d="M218.1,52.966H11.9A12.006,12.006,0,0,0,0,65.078v161.5a12.006,12.006,0,0,0,11.9,12.113H218.1A12.006,12.006,0,0,0,230,226.576V65.078A12.006,12.006,0,0,0,218.1,52.966Zm5.248,174.9a4,4,0,0,1-3.966,4.038H10.615a4,4,0,0,1-3.966-4.038V79.934A4,4,0,0,1,10.615,75.9h208.77a4,4,0,0,1,3.966,4.038Z" transform="translate(0 -52.966)"/><circle class="c" cx="4.022" cy="4.022" r="4.022" transform="translate(8.043 8.042)"/><circle class="d" cx="4.022" cy="4.022" r="4.022" transform="translate(20.107 8.042)"/><circle class="e" cx="4.022" cy="4.022" r="4.022" transform="translate(32.171 8.042)"/><g transform="translate(45.017 8.042)"><path class="f" d="M113.973,78.663h-4.022a4.022,4.022,0,0,1-4.022-4.021h0a4.022,4.022,0,0,1,4.022-4.022h4.022a4.022,4.022,0,0,1,4.022,4.022h0A4.022,4.022,0,0,1,113.973,78.663Z" transform="translate(-105.93 -70.62)"/><path class="f" d="M149.284,78.663h-4.022a4.022,4.022,0,0,1-4.022-4.021h0a4.022,4.022,0,0,1,4.022-4.022h4.022a4.022,4.022,0,0,1,4.022,4.022h0A4.022,4.022,0,0,1,149.284,78.663Z" transform="translate(-125.155 -70.62)"/><path class="f" d="M440.594,78.663h-4.021a4.022,4.022,0,0,1-4.022-4.021h0a4.022,4.022,0,0,1,4.022-4.022h4.021a4.022,4.022,0,0,1,4.022,4.022h0A4.022,4.022,0,0,1,440.594,78.663Z" transform="translate(-283.76 -70.62)"/><path class="f" d="M475.9,78.663h-4.022a4.022,4.022,0,0,1-4.022-4.021h0a4.022,4.022,0,0,1,4.022-4.022H475.9a4.022,4.022,0,0,1,4.022,4.022h0A4.022,4.022,0,0,1,475.9,78.663Z" transform="translate(-302.985 -70.62)"/><path class="f" d="M285.913,78.663H189.4a4.022,4.022,0,0,1-4.022-4.021h0A4.022,4.022,0,0,1,189.4,70.62h96.513a4.022,4.022,0,0,1,4.021,4.022h0A4.022,4.022,0,0,1,285.913,78.663Z" transform="translate(-149.186 -70.62)"/></g><g transform="translate(19.264 34.533)"><g transform="translate(0 0)"><g transform="translate(0 0)"><path class="g" d="M3.253,31.415H1.7A1.712,1.712,0,0,1,0,29.695V23.848a.2.2,0,0,1,0-.029V22.574a10.862,10.862,0,0,1,2-2.066l.067.086a1.142,1.142,0,0,0,.114.136,9.461,9.461,0,0,0,1.152.913,1.418,1.418,0,1,0,1.407-1.688,1.514,1.514,0,0,0-.254.023,9,9,0,0,1-.868-.675.587.587,0,0,1-.054-.064c-.01-.013-.02-.027-.03-.039.168-.143.3-.243.412-.33h.007c.391-.305.587-.459.785-.459s.384.143.795.465c1.357,1.066,3.921,3.211,3.92,3.693V29.7a1.712,1.712,0,0,1-1.7,1.72H6.319L5.462,28.3a1.59,1.59,0,1,0-1.36,0l-.856,3.119Z" transform="translate(0.004 -15.783)"/><path class="h" d="M14.716,6.056a.5.5,0,0,1-.275-.083,16.6,16.6,0,0,1-1.788-1.347A2.874,2.874,0,0,1,12.581.565,1.935,1.935,0,0,1,14.829.2,6,6,0,0,1,16.741,1.57a1.7,1.7,0,0,0,1.249.645.952.952,0,0,0,.621-.38.5.5,0,1,1,.839.542,1.932,1.932,0,0,1-1.354.831,2.577,2.577,0,0,1-2.061-.932,5.116,5.116,0,0,0-1.578-1.153.941.941,0,0,0-1.169.148,1.874,1.874,0,0,0,.071,2.649,15.212,15.212,0,0,0,1.635,1.222.5.5,0,0,1-.278.915Z" transform="translate(-10.095 -0.002)"/><g transform="translate(12.629 5.067)"><path class="i" d="M96.117,50.083H93.635l-1.491-2.467c-.111-.188-.218-.355-.321-.5a2.915,2.915,0,0,0-.311-.378,1.236,1.236,0,0,0-.328-.241.828.828,0,0,0-.371-.083h-.582v3.672H88.07V40.49h3.425q3.492,0,3.492,2.609a2.7,2.7,0,0,1-.154.928,2.578,2.578,0,0,1-.428.765,2.771,2.771,0,0,1-.679.589,3.5,3.5,0,0,1-.886.388V45.8a1.359,1.359,0,0,1,.414.217,2.854,2.854,0,0,1,.388.351,5.07,5.07,0,0,1,.358.428c.114.154.217.305.311.452ZM90.231,42.11v2.669h.938a1.553,1.553,0,0,0,1.116-.4,1.341,1.341,0,0,0,.428-1.01q0-1.259-1.5-1.257Z" transform="translate(-88.07 -39.942)"/><path class="i" d="M149.643,62.7h-4.469q.107,1.491,1.879,1.491a3.671,3.671,0,0,0,1.988-.535v1.525a5.2,5.2,0,0,1-2.469.508A3.187,3.187,0,0,1,143.08,62.2a3.652,3.652,0,0,1,.99-2.7,3.3,3.3,0,0,1,2.435-1,2.994,2.994,0,0,1,2.318.889,3.432,3.432,0,0,1,.82,2.416Zm-1.961-1.3q0-1.473-1.19-1.473a1.142,1.142,0,0,0-.88.428,1.911,1.911,0,0,0-.451,1.05Z" transform="translate(-135.23 -55.378)"/><path class="i" d="M199.06,45.994h-.027v.8H196.92V36.65h2.113v4.321h.027a2.509,2.509,0,0,1,2.228-1.2,2.443,2.443,0,0,1,2.039.91,3.909,3.909,0,0,1,.714,2.487,4.251,4.251,0,0,1-.836,2.75,2.724,2.724,0,0,1-2.235,1.036A2.155,2.155,0,0,1,199.06,45.994ZM199,43.1v.7a1.6,1.6,0,0,0,.381,1.1,1.24,1.24,0,0,0,.975.435,1.294,1.294,0,0,0,1.12-.558,2.7,2.7,0,0,0,.4-1.583,2.128,2.128,0,0,0-.364-1.327,1.232,1.232,0,0,0-1.04-.479,1.341,1.341,0,0,0-1.053.475A1.8,1.8,0,0,0,199,43.1Z" transform="translate(-181.387 -36.65)"/><path class="i" d="M257.215,65.557h-2v-.983h-.026a2.232,2.232,0,0,1-2.041,1.15,2.121,2.121,0,0,1-1.57-.571,2.039,2.039,0,0,1-.571-1.508q0-2,2.362-2.3l1.855-.248q0-1.123-1.217-1.123a4.156,4.156,0,0,0-2.329.729V59.115a5.28,5.28,0,0,1,1.207-.4,6.377,6.377,0,0,1,1.4-.174,2.586,2.586,0,0,1,2.93,2.923Zm-1.986-2.783v-.458l-1.244.16q-1.03.136-1.03.93A.769.769,0,0,0,253.2,64a.963.963,0,0,0,.679.23,1.25,1.25,0,0,0,.969-.411A1.486,1.486,0,0,0,255.228,62.774Z" transform="translate(-227.758 -55.416)"/><path class="i" d="M305.695,53.98a3.114,3.114,0,0,1-1.411.247q-2.232,0-2.233-2.32V48.768h-1.11V47.211h1.11V45.732l2.106-.6v2.081h1.538v1.558h-1.538v2.764q0,1.07.856,1.07a1.428,1.428,0,0,0,.688-.194Z" transform="translate(-270.563 -43.92)"/><path class="i" d="M345.007,62.7h-4.468q.107,1.491,1.879,1.491a3.669,3.669,0,0,0,1.986-.535v1.525a5.2,5.2,0,0,1-2.469.508,3.454,3.454,0,0,1-2.569-.919,3.514,3.514,0,0,1-.918-2.569,3.652,3.652,0,0,1,.99-2.7,3.3,3.3,0,0,1,2.435-1,3,3,0,0,1,2.319.889,3.407,3.407,0,0,1,.813,2.422Zm-1.961-1.3q0-1.473-1.19-1.473a1.142,1.142,0,0,0-.879.428,1.912,1.912,0,0,0-.451,1.045Z" transform="translate(-302.72 -55.378)"/><g transform="translate(44.144 0.548)"><path class="j" d="M405.383,50.083h-2.728l-2.8-4.167a4.071,4.071,0,0,1-.254-.528h-.033v4.695H397.41V40.49h2.161v4.535h.033c.054-.124.143-.3.268-.535l2.649-4h2.569l-3.338,4.572Z" transform="translate(-397.41 -40.49)"/><path class="j" d="M460.087,62.7h-4.468q.106,1.491,1.879,1.491a3.668,3.668,0,0,0,1.986-.535v1.525a5.2,5.2,0,0,1-2.469.508,3.455,3.455,0,0,1-2.569-.919,3.513,3.513,0,0,1-.918-2.569,3.652,3.652,0,0,1,.99-2.7,3.3,3.3,0,0,1,2.435-1,3,3,0,0,1,2.319.889,3.418,3.418,0,0,1,.819,2.416Zm-1.961-1.3q0-1.473-1.19-1.473a1.142,1.142,0,0,0-.879.428,1.913,1.913,0,0,0-.452,1.05Z" transform="translate(-445.522 -55.926)"/><path class="j" d="M508.343,59.7l-2.783,7.4q-1,2.667-3.022,2.669a3.879,3.879,0,0,1-1.264-.174V67.91a1.787,1.787,0,0,0,.916.247,1.141,1.141,0,0,0,1.141-.769l.361-.849L500.91,59.7h2.34l1.285,4.168a5.418,5.418,0,0,1,.187.916h.027a6.327,6.327,0,0,1,.214-.9l1.292-4.181Z" transform="translate(-486.14 -56.959)"/></g></g></g></g></g><g transform="translate(18.834 85.843)"><g class="u" transform="matrix(1, 0, 0, 1, -76.33, -85.84)"><rect class="k" width="192.756" height="81.214" rx="1" transform="translate(76.33 85.84)"/></g><rect class="l" width="182.137" height="70.198" transform="translate(6.372 5.437)"/><path class="k" d="M44.626,21H0V56.87H44.626ZM8.616,25.927a3.5,3.5,0,1,1-3.536,3.5A3.517,3.517,0,0,1,8.616,25.927ZM29.225,50.252H5.379L17.3,32.151,25.32,44.324l5.011-7.608,8.916,13.536Z" transform="translate(74.281 1.678)"/></g><rect class="m" width="74.624" height="4.248" rx="2.124" transform="translate(19.33 63.019)"/><rect class="m" width="54.005" height="4.248" rx="2.124" transform="translate(19.33 70.783)"/><rect class="j" width="82.261" height="14.557" rx="2" transform="translate(129.483 62.891)"/><text class="n" transform="translate(170.76 73.2)"><tspan x="-29.734" y="0">ADD TO CHROME</tspan></text></g><g transform="translate(229 1151)"><g class="t" transform="matrix(1, 0, 0, 1, -7.5, -87)"><rect class="k" width="103" height="107" rx="3" transform="translate(7.5 87)"/></g><rect class="m" width="66.445" height="4.529" rx="2.265" transform="translate(26.837 12.673)"/><rect class="m" width="48.086" height="4.529" rx="2.265" transform="translate(26.837 20.931)"/><rect class="o" width="82.437" height="4.529" rx="2.265" transform="translate(10.349 36.045)"/><rect class="o" width="82.437" height="4.529" rx="2.265" transform="translate(10.349 44.29)"/><rect class="o" width="82.437" height="4.529" rx="2.265" transform="translate(10.349 52.534)"/><g transform="translate(9.522 8.471)"><path class="g" d="M3.469,32.276H1.814A1.826,1.826,0,0,1,0,30.442V24.209a.215.215,0,0,1,0-.03V22.85a11.581,11.581,0,0,1,2.13-2.2l.072.091a1.217,1.217,0,0,0,.122.145,10.088,10.088,0,0,0,1.228.974,1.512,1.512,0,1,0,1.5-1.8,1.615,1.615,0,0,0-.271.024,9.6,9.6,0,0,1-.925-.72.626.626,0,0,1-.058-.068c-.011-.014-.021-.029-.032-.041.18-.152.32-.259.44-.351H4.21c.417-.326.625-.49.837-.49s.409.152.848.5c1.447,1.137,4.181,3.424,4.18,3.938v7.608a1.826,1.826,0,0,1-1.815,1.833H6.737l-.913-3.326a1.7,1.7,0,1,0-1.45,0l-.913,3.326Z" transform="translate(0.004 -15.609)"/><path class="h" d="M14.911,6.457a.534.534,0,0,1-.294-.088,17.7,17.7,0,0,1-1.907-1.436A3.065,3.065,0,0,1,12.635.6a2.063,2.063,0,0,1,2.4-.393A6.4,6.4,0,0,1,17.07,1.674a1.81,1.81,0,0,0,1.331.688,1.015,1.015,0,0,0,.662-.4.533.533,0,0,1,.895.578,2.06,2.06,0,0,1-1.444.886,2.747,2.747,0,0,1-2.2-.994A5.455,5.455,0,0,0,14.634,1.2a1,1,0,0,0-1.246.158,2,2,0,0,0,.076,2.824,16.219,16.219,0,0,0,1.744,1.3.533.533,0,0,1-.3.975Z" transform="translate(-9.983 -0.002)"/></g><g class="p" transform="translate(10 82)"><rect class="r" width="83" height="15" rx="2"/><rect class="s" x="0.5" y="0.5" width="82" height="14" rx="1.5"/></g><text class="q" transform="translate(52 92.5)"><tspan x="-28.499" y="0">ADD EXTENSION</tspan></text></g></g></svg>